<svg width="24" height="24" viewBox="0 0 24 24" fill="none" xmlns="http://www.w3.org/2000/svg">
<g opacity="0.4">
<path fill-rule="evenodd" clip-rule="evenodd" d="M16.2579 4.70504C13.6594 4.03167 10.9407 4.03167 8.34224 4.70504C7.59903 4.89764 7.10005 5.5804 7.10005 6.33827V6.69661C7.01413 6.68525 6.92651 6.67938 6.83755 6.67938C5.69213 6.67938 4.80005 7.63563 4.80005 8.76946V10.5576C4.80005 11.6914 5.69213 12.6476 6.83755 12.6476C6.96895 12.6476 7.09741 12.6348 7.22179 12.6104C7.69178 14.8111 9.47346 16.5214 11.7 16.7846V18.6H10.575C10.2437 18.6 9.97505 18.8686 9.97505 19.2C9.97505 19.5314 10.2437 19.8 10.575 19.8H14.025C14.3564 19.8 14.625 19.5314 14.625 19.2C14.625 18.8686 14.3564 18.6 14.025 18.6H12.9V16.7846C15.1266 16.5214 16.9083 14.8111 17.3783 12.6104C17.5027 12.6348 17.6312 12.6476 17.7625 12.6476C18.908 12.6476 19.8 11.6914 19.8 10.5576V8.76946C19.8 7.63563 18.908 6.67938 17.7625 6.67938C17.6736 6.67938 17.586 6.68525 17.5 6.69661V6.33827C17.5 5.5804 17.0011 4.89764 16.2579 4.70504ZM7.10005 7.92386C7.01727 7.89484 6.92908 7.87938 6.83755 7.87938C6.39514 7.87938 6.00005 8.25738 6.00005 8.76946V10.5576C6.00005 11.0696 6.39514 11.4476 6.83755 11.4476C6.92906 11.4476 7.01725 11.4322 7.10005 11.4031V7.92386ZM17.5 11.4031C17.5828 11.4322 17.671 11.4476 17.7625 11.4476C18.205 11.4476 18.6 11.0696 18.6 10.5576V8.76946C18.6 8.25738 18.205 7.87938 17.7625 7.87938C17.671 7.87938 17.5828 7.89484 17.5 7.92386V11.4031Z" fill="black"/>
</g>
</svg>
