<svg width="24" height="24" viewBox="0 0 24 24" fill="none" xmlns="http://www.w3.org/2000/svg">
<g opacity="0.3">
<path d="M6.28349 11.7924L5.85695 11.5315L5.85695 11.5315L6.28349 11.7924ZM17.6716 11.688L18.1046 11.4381L18.1046 11.4381L17.6716 11.688ZM16.5446 15.7056L16.4094 15.2242L16.4094 15.2242L16.5446 15.7056ZM7.38757 15.6569L7.52807 15.1771L7.52807 15.1771L7.38757 15.6569ZM10.0681 17.8796C9.86906 17.6882 9.55254 17.6944 9.36114 17.8934C9.16973 18.0925 9.17593 18.409 9.37497 18.6004L10.0681 17.8796ZM14.727 18.6004C14.926 18.409 14.9322 18.0925 14.7408 17.8934C14.5494 17.6944 14.2329 17.6882 14.0338 17.8796L14.727 18.6004ZM5.40042 13.7454L5.90041 13.7422L5.40042 13.7454ZM5.87378 14.9404L5.50604 15.2792L5.50604 15.2792L5.87378 14.9404ZM18.5999 13.8206L18.1001 13.8067L18.1001 13.8067L18.5999 13.8206ZM18.1081 14.9982L17.7456 14.6538L17.7456 14.6538L18.1081 14.9982ZM16.3374 7.18427L16.2237 6.69738L16.3374 7.18427ZM15.6687 6.32175L16.1115 6.55394L15.6687 6.32175ZM17.4878 8.92843C17.4483 8.65513 17.1947 8.46561 16.9214 8.50514C16.6481 8.54466 16.4586 8.79825 16.4981 9.07155L17.4878 8.92843ZM13.8983 5.68747C14.1508 5.7991 14.4461 5.68485 14.5577 5.43227C14.6693 5.1797 14.5551 4.88445 14.3025 4.77282L13.8983 5.68747ZM6.71002 12.0533C6.93483 11.6857 7.14171 11.31 7.29387 10.9588C7.44095 10.6193 7.55933 10.2531 7.55933 9.91999H6.55933C6.55933 10.0439 6.50802 10.2572 6.37628 10.5612C6.24963 10.8536 6.06858 11.1855 5.85695 11.5315L6.71002 12.0533ZM7.55933 9.91999V9.69262H6.55933V9.91999H7.55933ZM16.5426 9.6925V9.91999H17.5426V9.6925H16.5426ZM16.5426 9.91999C16.5426 10.5669 16.8698 11.299 17.2385 11.9379L18.1046 11.4381C17.7466 10.8177 17.5426 10.2838 17.5426 9.91999H16.5426ZM16.4094 15.2242C15.234 15.5544 13.7579 15.82 12.051 15.82V16.82C13.8619 16.82 15.4294 16.5382 16.6799 16.187L16.4094 15.2242ZM12.051 15.82C10.2634 15.82 8.72907 15.5287 7.52807 15.1771L7.24707 16.1368C8.52512 16.511 10.1546 16.82 12.051 16.82V15.82ZM9.72154 18.24C9.37497 18.6004 9.37509 18.6005 9.37522 18.6006C9.37527 18.6007 9.37539 18.6008 9.37549 18.6009C9.37568 18.6011 9.37588 18.6013 9.3761 18.6015C9.37654 18.6019 9.37704 18.6024 9.3776 18.6029C9.37873 18.604 9.3801 18.6053 9.38173 18.6068C9.38497 18.6099 9.38921 18.6138 9.39441 18.6186C9.40482 18.6282 9.41912 18.6411 9.43715 18.657C9.47318 18.6886 9.52429 18.7319 9.58916 18.7829C9.71854 18.8847 9.90474 19.0189 10.1372 19.1531C10.5975 19.4187 11.2673 19.7 12.051 19.7V18.7C11.5036 18.7 11.0086 18.5013 10.637 18.2869C10.4535 18.181 10.3069 18.0752 10.2075 17.997C10.158 17.9581 10.1207 17.9264 10.0969 17.9055C10.0851 17.8951 10.0766 17.8874 10.0717 17.8829C10.0693 17.8807 10.0678 17.8793 10.0672 17.8787C10.0669 17.8784 10.0668 17.8783 10.0669 17.8785C10.067 17.8785 10.0672 17.8787 10.0673 17.8789C10.0674 17.8789 10.0676 17.8791 10.0677 17.8792C10.0677 17.8792 10.0679 17.8793 10.0679 17.8794C10.068 17.8795 10.0681 17.8796 9.72154 18.24ZM12.051 19.7C12.8347 19.7 13.5044 19.4187 13.9647 19.1531C14.1972 19.0189 14.3834 18.8847 14.5128 18.7829C14.5777 18.7319 14.6288 18.6886 14.6648 18.657C14.6828 18.6411 14.6971 18.6282 14.7075 18.6186C14.7127 18.6138 14.717 18.6099 14.7202 18.6068C14.7218 18.6053 14.7232 18.604 14.7243 18.6029C14.7249 18.6024 14.7254 18.6019 14.7258 18.6015C14.7261 18.6013 14.7263 18.6011 14.7265 18.6009C14.7265 18.6008 14.7267 18.6007 14.7267 18.6006C14.7268 18.6005 14.727 18.6004 14.3804 18.24C14.0338 17.8796 14.0339 17.8795 14.0341 17.8794C14.0341 17.8793 14.0342 17.8792 14.0343 17.8792C14.0344 17.8791 14.0345 17.8789 14.0346 17.8789C14.0348 17.8787 14.0349 17.8785 14.035 17.8785C14.0352 17.8783 14.0351 17.8784 14.0348 17.8787C14.0342 17.8793 14.0326 17.8807 14.0302 17.8829C14.0253 17.8874 14.0169 17.8951 14.005 17.9055C13.9813 17.9264 13.944 17.9581 13.8944 17.997C13.795 18.0752 13.6485 18.181 13.465 18.2869C13.0934 18.5013 12.5984 18.7 12.051 18.7V19.7ZM5.85695 11.5315C5.56674 12.0059 5.32965 12.3925 5.16911 12.7243C5.00461 13.0643 4.89817 13.39 4.90043 13.7485L5.90041 13.7422C5.89949 13.5966 5.93918 13.4288 6.0693 13.1598C6.20338 12.8827 6.40941 12.5447 6.71002 12.0533L5.85695 11.5315ZM7.52807 15.1771C6.71564 14.9392 6.47487 14.855 6.24151 14.6016L5.50604 15.2792C5.9621 15.7743 6.50073 15.9182 7.24707 16.1368L7.52807 15.1771ZM4.90043 13.7485C4.90377 14.2801 5.14502 14.8873 5.50604 15.2792L6.24151 14.6016C6.0474 14.3909 5.90217 14.0224 5.90041 13.7422L4.90043 13.7485ZM17.2385 11.9379C17.5572 12.4902 17.7793 12.8759 17.923 13.1855C18.0652 13.492 18.1039 13.67 18.1001 13.8067L19.0998 13.8344C19.1098 13.4713 18.9984 13.1273 18.8301 12.7645C18.6632 12.405 18.4141 11.9743 18.1046 11.4381L17.2385 11.9379ZM16.6799 16.187C17.4533 15.9697 18.0097 15.8276 18.4706 15.3426L17.7456 14.6538C17.5111 14.9006 17.257 14.9862 16.4094 15.2242L16.6799 16.187ZM18.1001 13.8067C18.092 14.1006 17.9527 14.4358 17.7456 14.6538L18.4706 15.3426C18.8459 14.9476 19.0847 14.3777 19.0998 13.8344L18.1001 13.8067ZM12.051 4.29999C9.02746 4.29999 6.55933 6.70574 6.55933 9.69262H7.55933C7.55933 7.27672 9.56087 5.29999 12.051 5.29999V4.29999ZM16.2004 6.69999C16.1452 6.69999 16.1004 6.65522 16.1004 6.59999H15.1004C15.1004 7.2075 15.5929 7.69999 16.2004 7.69999V6.69999ZM16.2004 6.49999C16.2556 6.49999 16.3004 6.54476 16.3004 6.59999H17.3004C17.3004 5.99247 16.8079 5.49999 16.2004 5.49999V6.49999ZM16.3004 6.59999C16.3004 6.64671 16.2679 6.68705 16.2237 6.69738L16.4512 7.67115C16.9377 7.55749 17.3004 7.12171 17.3004 6.59999H16.3004ZM16.2237 6.69738C16.2167 6.69901 16.209 6.69999 16.2004 6.69999V7.69999C16.2861 7.69999 16.3701 7.69009 16.4512 7.67115L16.2237 6.69738ZM16.1004 6.59999C16.1004 6.58237 16.1045 6.56719 16.1115 6.55394L15.2258 6.08956C15.1456 6.24264 15.1004 6.41677 15.1004 6.59999H16.1004ZM16.1115 6.55394C16.1289 6.5208 16.1626 6.49999 16.2004 6.49999V5.49999C15.7763 5.49999 15.4091 5.74015 15.2258 6.08956L16.1115 6.55394ZM16.4981 9.07155C16.5274 9.27417 16.5426 9.48146 16.5426 9.6925H17.5426C17.5426 9.4334 17.524 9.17828 17.4878 8.92843L16.4981 9.07155ZM12.051 5.29999C12.7106 5.29999 13.3356 5.4388 13.8983 5.68747L14.3025 4.77282C13.6146 4.46879 12.8521 4.29999 12.051 4.29999V5.29999Z" fill="black"/>
</g>
</svg>
