<svg width="230" height="39" viewBox="0 0 230 39" fill="none" xmlns="http://www.w3.org/2000/svg">
<circle cx="225.6" cy="2.9" r="2.9" fill="#293FCC"/>
<circle cx="216.9" cy="2.9" r="2.9" fill="#293FCC"/>
<path d="M0.858 19.848C0.858 18.0453 1.248 16.442 2.028 15.038C2.808 13.6167 3.89133 12.516 5.278 11.736C6.682 10.9387 8.268 10.54 10.036 10.54C12.2027 10.54 14.0573 11.112 15.6 12.256C17.1427 13.4 18.174 14.96 18.694 16.936H13.806C13.442 16.1733 12.922 15.5927 12.246 15.194C11.5873 14.7953 10.8333 14.596 9.984 14.596C8.61467 14.596 7.50533 15.0727 6.656 16.026C5.80667 16.9793 5.382 18.2533 5.382 19.848C5.382 21.4427 5.80667 22.7167 6.656 23.67C7.50533 24.6233 8.61467 25.1 9.984 25.1C10.8333 25.1 11.5873 24.9007 12.246 24.502C12.922 24.1033 13.442 23.5227 13.806 22.76H18.694C18.174 24.736 17.1427 26.296 15.6 27.44C14.0573 28.5667 12.2027 29.13 10.036 29.13C8.268 29.13 6.682 28.74 5.278 27.96C3.89133 27.1627 2.808 26.062 2.028 24.658C1.248 23.254 0.858 21.6507 0.858 19.848ZM28.0207 29.208C26.5994 29.208 25.3167 28.9047 24.1727 28.298C23.046 27.6913 22.1534 26.8247 21.4947 25.698C20.8534 24.5713 20.5327 23.254 20.5327 21.746C20.5327 20.2553 20.862 18.9467 21.5207 17.82C22.1794 16.676 23.0807 15.8007 24.2247 15.194C25.3687 14.5873 26.6514 14.284 28.0727 14.284C29.494 14.284 30.7767 14.5873 31.9207 15.194C33.0647 15.8007 33.966 16.676 34.6247 17.82C35.2834 18.9467 35.6127 20.2553 35.6127 21.746C35.6127 23.2367 35.2747 24.554 34.5987 25.698C33.94 26.8247 33.03 27.6913 31.8687 28.298C30.7247 28.9047 29.442 29.208 28.0207 29.208ZM28.0207 25.36C28.87 25.36 29.5894 25.048 30.1787 24.424C30.7854 23.8 31.0887 22.9073 31.0887 21.746C31.0887 20.5847 30.794 19.692 30.2047 19.068C29.6327 18.444 28.922 18.132 28.0727 18.132C27.206 18.132 26.4867 18.444 25.9147 19.068C25.3427 19.6747 25.0567 20.5673 25.0567 21.746C25.0567 22.9073 25.334 23.8 25.8887 24.424C26.4607 25.048 27.1714 25.36 28.0207 25.36ZM46.8114 14.336C48.51 14.336 49.862 14.8907 50.8674 16C51.89 17.092 52.4014 18.6 52.4014 20.524V29H47.9814V21.122C47.9814 20.1513 47.73 19.3973 47.2274 18.86C46.7247 18.3227 46.0487 18.054 45.1994 18.054C44.35 18.054 43.674 18.3227 43.1714 18.86C42.6687 19.3973 42.4174 20.1513 42.4174 21.122V29H37.9714V14.492H42.4174V16.416C42.868 15.7747 43.4747 15.272 44.2374 14.908C45 14.5267 45.858 14.336 46.8114 14.336ZM64.3309 14.336C66.0296 14.336 67.3816 14.8907 68.3869 16C69.4096 17.092 69.9209 18.6 69.9209 20.524V29H65.5009V21.122C65.5009 20.1513 65.2496 19.3973 64.7469 18.86C64.2442 18.3227 63.5682 18.054 62.7189 18.054C61.8696 18.054 61.1936 18.3227 60.6909 18.86C60.1882 19.3973 59.9369 20.1513 59.9369 21.122V29H55.4909V14.492H59.9369V16.416C60.3876 15.7747 60.9942 15.272 61.7569 14.908C62.5196 14.5267 63.3776 14.336 64.3309 14.336ZM86.6864 21.512C86.6864 21.928 86.6604 22.3613 86.6084 22.812H76.5464C76.6158 23.7133 76.9018 24.4067 77.4044 24.892C77.9244 25.36 78.5571 25.594 79.3024 25.594C80.4118 25.594 81.1831 25.126 81.6164 24.19H86.3484C86.1058 25.1433 85.6638 26.0013 85.0224 26.764C84.3984 27.5267 83.6098 28.1247 82.6564 28.558C81.7031 28.9913 80.6371 29.208 79.4584 29.208C78.0371 29.208 76.7718 28.9047 75.6624 28.298C74.5531 27.6913 73.6864 26.8247 73.0624 25.698C72.4384 24.5713 72.1264 23.254 72.1264 21.746C72.1264 20.238 72.4298 18.9207 73.0364 17.794C73.6604 16.6673 74.5271 15.8007 75.6364 15.194C76.7458 14.5873 78.0198 14.284 79.4584 14.284C80.8624 14.284 82.1104 14.5787 83.2024 15.168C84.2944 15.7573 85.1438 16.598 85.7504 17.69C86.3744 18.782 86.6864 20.056 86.6864 21.512ZM82.1364 20.342C82.1364 19.5793 81.8764 18.9727 81.3564 18.522C80.8364 18.0713 80.1864 17.846 79.4064 17.846C78.6611 17.846 78.0284 18.0627 77.5084 18.496C77.0058 18.9293 76.6938 19.5447 76.5724 20.342H82.1364ZM88.1479 21.746C88.1479 20.238 88.4513 18.9207 89.0579 17.794C89.6819 16.6673 90.5399 15.8007 91.6319 15.194C92.7413 14.5873 94.0066 14.284 95.4279 14.284C97.2479 14.284 98.7646 14.7607 99.9779 15.714C101.209 16.6673 102.015 18.0107 102.396 19.744H97.6639C97.2653 18.6347 96.4939 18.08 95.3499 18.08C94.5353 18.08 93.8853 18.4007 93.3999 19.042C92.9146 19.666 92.6719 20.5673 92.6719 21.746C92.6719 22.9247 92.9146 23.8347 93.3999 24.476C93.8853 25.1 94.5353 25.412 95.3499 25.412C96.4939 25.412 97.2653 24.8573 97.6639 23.748H102.396C102.015 25.4467 101.209 26.7813 99.9779 27.752C98.7473 28.7227 97.2306 29.208 95.4279 29.208C94.0066 29.208 92.7413 28.9047 91.6319 28.298C90.5399 27.6913 89.6819 26.8247 89.0579 25.698C88.4513 24.5713 88.1479 23.254 88.1479 21.746ZM112.86 25.23V29H110.598C108.986 29 107.729 28.61 106.828 27.83C105.927 27.0327 105.476 25.7413 105.476 23.956V18.184H103.708V14.492H105.476V10.956H109.922V14.492H112.834V18.184H109.922V24.008C109.922 24.4413 110.026 24.7533 110.234 24.944C110.442 25.1347 110.789 25.23 111.274 25.23H112.86ZM128.932 25.23V29H126.67C125.058 29 123.802 28.61 122.9 27.83C121.999 27.0327 121.548 25.7413 121.548 23.956V18.184H119.78V14.492H121.548V10.956H125.994V14.492H128.906V18.184H125.994V24.008C125.994 24.4413 126.098 24.7533 126.306 24.944C126.514 25.1347 126.861 25.23 127.346 25.23H128.932ZM140.327 14.336C141.991 14.336 143.326 14.8907 144.331 16C145.336 17.092 145.839 18.6 145.839 20.524V29H141.419V21.122C141.419 20.1513 141.168 19.3973 140.665 18.86C140.162 18.3227 139.486 18.054 138.637 18.054C137.788 18.054 137.112 18.3227 136.609 18.86C136.106 19.3973 135.855 20.1513 135.855 21.122V29H131.409V9.76H135.855V16.442C136.306 15.8007 136.921 15.2893 137.701 14.908C138.481 14.5267 139.356 14.336 140.327 14.336ZM162.604 21.512C162.604 21.928 162.578 22.3613 162.526 22.812H152.464C152.534 23.7133 152.82 24.4067 153.322 24.892C153.842 25.36 154.475 25.594 155.22 25.594C156.33 25.594 157.101 25.126 157.534 24.19H162.266C162.024 25.1433 161.582 26.0013 160.94 26.764C160.316 27.5267 159.528 28.1247 158.574 28.558C157.621 28.9913 156.555 29.208 155.376 29.208C153.955 29.208 152.69 28.9047 151.58 28.298C150.471 27.6913 149.604 26.8247 148.98 25.698C148.356 24.5713 148.044 23.254 148.044 21.746C148.044 20.238 148.348 18.9207 148.954 17.794C149.578 16.6673 150.445 15.8007 151.554 15.194C152.664 14.5873 153.938 14.284 155.376 14.284C156.78 14.284 158.028 14.5787 159.12 15.168C160.212 15.7573 161.062 16.598 161.668 17.69C162.292 18.782 162.604 20.056 162.604 21.512ZM158.054 20.342C158.054 19.5793 157.794 18.9727 157.274 18.522C156.754 18.0713 156.104 17.846 155.324 17.846C154.579 17.846 153.946 18.0627 153.426 18.496C152.924 18.9293 152.612 19.5447 152.49 20.342H158.054ZM177.298 10.748C179.222 10.748 180.903 11.1293 182.342 11.892C183.78 12.6547 184.89 13.7293 185.67 15.116C186.467 16.4853 186.866 18.0713 186.866 19.874C186.866 21.6593 186.467 23.2453 185.67 24.632C184.89 26.0187 183.772 27.0933 182.316 27.856C180.877 28.6187 179.204 29 177.298 29H170.46V10.748H177.298ZM177.012 25.152C178.693 25.152 180.002 24.6927 180.938 23.774C181.874 22.8553 182.342 21.5553 182.342 19.874C182.342 18.1927 181.874 16.884 180.938 15.948C180.002 15.012 178.693 14.544 177.012 14.544H174.906V25.152H177.012ZM195.954 29.208C194.533 29.208 193.25 28.9047 192.106 28.298C190.98 27.6913 190.087 26.8247 189.428 25.698C188.787 24.5713 188.466 23.254 188.466 21.746C188.466 20.2553 188.796 18.9467 189.454 17.82C190.113 16.676 191.014 15.8007 192.158 15.194C193.302 14.5873 194.585 14.284 196.006 14.284C197.428 14.284 198.71 14.5873 199.854 15.194C200.998 15.8007 201.9 16.676 202.558 17.82C203.217 18.9467 203.546 20.2553 203.546 21.746C203.546 23.2367 203.208 24.554 202.532 25.698C201.874 26.8247 200.964 27.6913 199.802 28.298C198.658 28.9047 197.376 29.208 195.954 29.208ZM195.954 25.36C196.804 25.36 197.523 25.048 198.112 24.424C198.719 23.8 199.022 22.9073 199.022 21.746C199.022 20.5847 198.728 19.692 198.138 19.068C197.566 18.444 196.856 18.132 196.006 18.132C195.14 18.132 194.42 18.444 193.848 19.068C193.276 19.6747 192.99 20.5673 192.99 21.746C192.99 22.9073 193.268 23.8 193.822 24.424C194.394 25.048 195.105 25.36 195.954 25.36ZM213.991 25.23V29H211.729C210.117 29 208.86 28.61 207.959 27.83C207.058 27.0327 206.607 25.7413 206.607 23.956V18.184H204.839V14.492H206.607V10.956H211.053V14.492H213.965V18.184H211.053V24.008C211.053 24.4413 211.157 24.7533 211.365 24.944C211.573 25.1347 211.92 25.23 212.405 25.23H213.991ZM222.369 29.208C221.104 29.208 219.977 28.9913 218.989 28.558C218.001 28.1247 217.221 27.5353 216.649 26.79C216.077 26.0273 215.757 25.178 215.687 24.242H220.081C220.133 24.7447 220.367 25.152 220.783 25.464C221.199 25.776 221.711 25.932 222.317 25.932C222.872 25.932 223.297 25.828 223.591 25.62C223.903 25.3947 224.059 25.1087 224.059 24.762C224.059 24.346 223.843 24.0427 223.409 23.852C222.976 23.644 222.274 23.4187 221.303 23.176C220.263 22.9333 219.397 22.682 218.703 22.422C218.01 22.1447 217.412 21.72 216.909 21.148C216.407 20.5587 216.155 19.77 216.155 18.782C216.155 17.95 216.381 17.196 216.831 16.52C217.299 15.8267 217.975 15.2807 218.859 14.882C219.761 14.4833 220.827 14.284 222.057 14.284C223.877 14.284 225.307 14.7347 226.347 15.636C227.405 16.5373 228.011 17.7333 228.167 19.224H224.059C223.99 18.7213 223.765 18.3227 223.383 18.028C223.019 17.7333 222.534 17.586 221.927 17.586C221.407 17.586 221.009 17.69 220.731 17.898C220.454 18.0887 220.315 18.3573 220.315 18.704C220.315 19.12 220.532 19.432 220.965 19.64C221.416 19.848 222.109 20.056 223.045 20.264C224.12 20.5413 224.995 20.8187 225.671 21.096C226.347 21.356 226.937 21.7893 227.439 22.396C227.959 22.9853 228.228 23.7827 228.245 24.788C228.245 25.6373 228.003 26.4 227.517 27.076C227.049 27.7347 226.365 28.2547 225.463 28.636C224.579 29.0173 223.548 29.208 222.369 29.208Z" fill="black"/>
</svg>
